<svg width="273" height="129" viewBox="0 0 273 129" fill="none" xmlns="http://www.w3.org/2000/svg">
<g opacity="0.1">
<path opacity="0.1" d="M128.12 125.13V128.13H125.12" stroke="#0B600F" stroke-miterlimit="10"/>
<path opacity="0.1" d="M119.35 128.13H6.87988" stroke="#0B600F" stroke-miterlimit="10" stroke-dasharray="5.77 5.77"/>
<path opacity="0.1" d="M4 128.13H1V125.13" stroke="#0B600F" stroke-miterlimit="10"/>
<path opacity="0.1" d="M1 119.36V6.89014" stroke="#0B600F" stroke-miterlimit="10" stroke-dasharray="5.77 5.77"/>
<path opacity="0.1" d="M1 4V1H4" stroke="#0B600F" stroke-miterlimit="10"/>
<path opacity="0.1" d="M9.76001 1H122.24" stroke="#0B600F" stroke-miterlimit="10" stroke-dasharray="5.77 5.77"/>
<path opacity="0.1" d="M125.12 1H128.12V4" stroke="#0B600F" stroke-miterlimit="10"/>
<path opacity="0.1" d="M128.12 9.77002V122.24" stroke="#0B600F" stroke-miterlimit="10" stroke-dasharray="5.77 5.77"/>
</g>
<path opacity="0.8" d="M64.1298 23L29.9985 45.6192V45.6618L56.3911 63.1432L64.1298 58.0053V23Z" fill="#2BB730"/>
<path opacity="0.8" d="M29.9985 80.6884L64.1298 103.286V68.2809L56.3911 63.1431L29.9985 80.6244V80.6884Z" fill="#2BB730"/>
<path opacity="0.8" d="M101.608 46.1739L67.4771 23.5547V58.56L75.2371 63.6978L101.608 46.2165V46.1739Z" fill="#2BB730"/>
<path opacity="0.8" d="M67.4771 103.841L101.608 81.2215V81.1788L75.2371 63.6975L67.4771 68.8353V103.841Z" fill="#2BB730"/>
<path opacity="0.8" d="M29.9985 45.6619V80.6246L56.3911 63.1432L29.9985 45.6619Z" fill="#71F143"/>
<path opacity="0.8" d="M101.609 81.179V46.2163L75.2373 63.6977L101.609 81.179Z" fill="#71F143"/>
<path d="M125.784 53.7273L131.841 72.0455H132.08L138.125 53.7273H142.761L134.557 77H129.352L121.159 53.7273H125.784ZM165.372 65.3636C165.372 67.8712 164.902 70.0189 163.963 71.8068C163.031 73.5871 161.759 74.9508 160.145 75.8977C158.539 76.8447 156.717 77.3182 154.679 77.3182C152.641 77.3182 150.815 76.8447 149.202 75.8977C147.596 74.9432 146.323 73.5758 145.384 71.7955C144.452 70.0076 143.986 67.8636 143.986 65.3636C143.986 62.8561 144.452 60.7121 145.384 58.9318C146.323 57.1439 147.596 55.7765 149.202 54.8295C150.815 53.8826 152.641 53.4091 154.679 53.4091C156.717 53.4091 158.539 53.8826 160.145 54.8295C161.759 55.7765 163.031 57.1439 163.963 58.9318C164.902 60.7121 165.372 62.8561 165.372 65.3636ZM161.134 65.3636C161.134 63.5985 160.857 62.1098 160.304 60.8977C159.759 59.678 159.001 58.7576 158.031 58.1364C157.062 57.5076 155.944 57.1932 154.679 57.1932C153.414 57.1932 152.296 57.5076 151.327 58.1364C150.357 58.7576 149.596 59.678 149.043 60.8977C148.497 62.1098 148.224 63.5985 148.224 65.3636C148.224 67.1288 148.497 68.6212 149.043 69.8409C149.596 71.053 150.357 71.9735 151.327 72.6023C152.296 73.2235 153.414 73.5341 154.679 73.5341C155.944 73.5341 157.062 73.2235 158.031 72.6023C159.001 71.9735 159.759 71.053 160.304 69.8409C160.857 68.6212 161.134 67.1288 161.134 65.3636ZM169.358 77V53.7273H173.574V73.4659H183.824V77H169.358ZM187.483 77V53.7273H202.392V57.2614H191.699V63.5795H201.369V67.1136H191.699V77H187.483ZM227.028 65.3636C227.028 67.8712 226.559 70.0189 225.619 71.8068C224.688 73.5871 223.415 74.9508 221.801 75.8977C220.195 76.8447 218.373 77.3182 216.335 77.3182C214.297 77.3182 212.472 76.8447 210.858 75.8977C209.252 74.9432 207.979 73.5758 207.04 71.7955C206.108 70.0076 205.642 67.8636 205.642 65.3636C205.642 62.8561 206.108 60.7121 207.04 58.9318C207.979 57.1439 209.252 55.7765 210.858 54.8295C212.472 53.8826 214.297 53.4091 216.335 53.4091C218.373 53.4091 220.195 53.8826 221.801 54.8295C223.415 55.7765 224.688 57.1439 225.619 58.9318C226.559 60.7121 227.028 62.8561 227.028 65.3636ZM222.79 65.3636C222.79 63.5985 222.513 62.1098 221.96 60.8977C221.415 59.678 220.657 58.7576 219.688 58.1364C218.718 57.5076 217.6 57.1932 216.335 57.1932C215.07 57.1932 213.953 57.5076 212.983 58.1364C212.013 58.7576 211.252 59.678 210.699 60.8977C210.153 62.1098 209.881 63.5985 209.881 65.3636C209.881 67.1288 210.153 68.6212 210.699 69.8409C211.252 71.053 212.013 71.9735 212.983 72.6023C213.953 73.2235 215.07 73.5341 216.335 73.5341C217.6 73.5341 218.718 73.2235 219.688 72.6023C220.657 71.9735 221.415 71.053 221.96 69.8409C222.513 68.6212 222.79 67.1288 222.79 65.3636ZM245.685 53.7273H249.901V68.9318C249.901 70.5985 249.507 72.0644 248.719 73.3295C247.938 74.5947 246.84 75.5833 245.423 76.2955C244.007 77 242.351 77.3523 240.457 77.3523C238.556 77.3523 236.897 77 235.48 76.2955C234.063 75.5833 232.965 74.5947 232.185 73.3295C231.404 72.0644 231.014 70.5985 231.014 68.9318V53.7273H235.23V68.5795C235.23 69.5492 235.442 70.4129 235.866 71.1705C236.298 71.928 236.904 72.5227 237.685 72.9545C238.465 73.3788 239.389 73.5909 240.457 73.5909C241.526 73.5909 242.45 73.3788 243.23 72.9545C244.018 72.5227 244.624 71.928 245.048 71.1705C245.473 70.4129 245.685 69.5492 245.685 68.5795V53.7273ZM254.483 77V53.7273H263.21C264.998 53.7273 266.498 54.0379 267.71 54.6591C268.93 55.2803 269.85 56.1515 270.472 57.2727C271.1 58.3864 271.415 59.6856 271.415 61.1705C271.415 62.6629 271.097 63.9583 270.46 65.0568C269.831 66.1477 268.903 66.9924 267.676 67.5909C266.449 68.1818 264.941 68.4773 263.153 68.4773H256.938V64.9773H262.585C263.631 64.9773 264.487 64.8333 265.153 64.5455C265.82 64.25 266.313 63.822 266.631 63.2614C266.956 62.6932 267.119 61.9962 267.119 61.1705C267.119 60.3447 266.956 59.6402 266.631 59.0568C266.305 58.4659 265.809 58.0189 265.142 57.7159C264.475 57.4053 263.616 57.25 262.562 57.25H258.699V77H254.483ZM266.506 66.4545L272.267 77H267.562L261.903 66.4545H266.506Z" fill="#71F143"/>
</svg>
